<svg xmlns="http://www.w3.org/2000/svg" width="960" height="390" viewBox="0 0 960 390" role="img" aria-labelledby="title desc">
  <title id="title">Inherited uniform scale ratio</title><desc id="desc">A recursive chain of 3D cubes shrinks with ratio one half. A second panel uses 3D parent and child cubes to show that the setting affects future spawns only.</desc>
  <defs><linearGradient id="bg" x2="1" y2="1"><stop stop-color="#0b1020"/><stop offset="1" stop-color="#17122b"/></linearGradient><marker id="a" markerWidth="10" markerHeight="10" refX="8" refY="3" orient="auto"><path d="M0 0L9 3 0 6Z" fill="#ffe08a"/></marker></defs><rect width="960" height="390" rx="22" fill="url(#bg)"/><text x="36" y="44" fill="#f7f5ff" font-family="system-ui,sans-serif" font-size="24" font-weight="700">− / + — uniform scale is inherited recursively</text>
  <g font-family="system-ui,sans-serif"><text x="58" y="91" fill="#63e6ff" font-size="16" font-weight="700">EXAMPLE: RATIO 0.5</text>
    <g stroke-width="2"><g transform="translate(55 45)" stroke="#a5f4ff"><polygon points="35,178 104,141 170,175 100,214" fill="#3d9bd0"/><polygon points="35,178 100,214 100,282 35,246" fill="#234e85"/><polygon points="100,214 170,175 170,243 100,282" fill="#173863"/></g><g transform="translate(260 103) scale(.68)" stroke="#ffc7eb"><polygon points="35,178 104,141 170,175 100,214" fill="#c552b5"/><polygon points="35,178 100,214 100,282 35,246" fill="#73338e"/><polygon points="100,214 170,175 170,243 100,282" fill="#51266f"/></g><g transform="translate(405 142) scale(.46)" stroke="#d4ffe2"><polygon points="35,178 104,141 170,175 100,214" fill="#4ec48c"/><polygon points="35,178 100,214 100,282 35,246" fill="#28725d"/><polygon points="100,214 170,175 170,243 100,282" fill="#18594f"/></g></g>
    <path d="M226 233H282" stroke="#ffe08a" stroke-width="4" marker-end="url(#a)"/><path d="M379 238H429" stroke="#ffe08a" stroke-width="4" marker-end="url(#a)"/><text x="113" y="348" fill="#dce6ff" font-size="14">level 0 · 2.0</text><text x="294" y="348" fill="#dce6ff" font-size="14">level 1 · 1.0</text><text x="437" y="348" fill="#dce6ff" font-size="14">level 2 · 0.5</text>
    <rect x="550" y="91" width="370" height="244" rx="16" fill="#111a31" stroke="#37466d"/><text x="735" y="124" text-anchor="middle" fill="#ff8bd8" font-size="16" font-weight="700">FUTURE SPAWNS ONLY</text>
    <g stroke="#a5f4ff" stroke-width="2"><polygon points="579,195 642,162 703,193 639,228" fill="#3d9bd0"/><polygon points="579,195 639,228 639,283 579,250" fill="#234e85"/><polygon points="639,228 703,193 703,248 639,283" fill="#173863"/></g>
    <g stroke="#ffc7eb" stroke-width="2"><polygon points="797,211 827,195 856,210 826,226" fill="#c552b5"/><polygon points="797,211 826,226 826,253 797,238" fill="#73338e"/><polygon points="826,226 856,210 856,237 826,253" fill="#51266f"/></g>
    <path d="M711 224H785" stroke="#ffe08a" stroke-width="4" marker-end="url(#a)"/><text x="641" y="306" text-anchor="middle" fill="#e8fbff" font-size="13">parent</text><text x="826" y="276" text-anchor="middle" fill="#ffe1f5" font-size="13">child</text><text x="735" y="320" text-anchor="middle" fill="#dce6ff" font-size="14">child = parent × ratio</text>
  </g>
</svg>
